<svg width="130" height="130" viewBox="0 0 130 130" fill="none" xmlns="http://www.w3.org/2000/svg">
<path d="M99.0234 8.125H30.4688C17.9791 8.125 8.125 17.9791 8.125 30.4688V99.0234C8.125 111.513 17.9791 121.875 30.4688 121.875H99.0234C111.513 121.875 121.875 111.513 121.875 99.0234V30.4688C121.875 17.9791 111.513 8.125 99.0234 8.125ZM85.3125 100.547H72.1094C61.3158 100.547 53.8281 94.5344 53.8281 81.25V60.9375H44.6875V48.75C55.4811 45.957 59.4014 36.4813 59.9219 28.4375H71.0938V46.7188H84.2969V60.9375H71.0938L70.9947 78.8404C70.9947 84.3934 73.7877 86.3129 78.2615 86.3129L85.3125 86.3281V100.547Z" fill="#70BAF2"/>
</svg>
