<svg width="126" height="126" viewBox="0 0 126 126" fill="none" xmlns="http://www.w3.org/2000/svg">
<path d="M93.5156 4.92188C100.16 4.92188 109.266 8.61328 113.572 12.9199L117.264 16.6113C121.816 21.4102 124.646 29.4082 125.139 36.2988V40.8516C124.154 55.125 114.188 65.9531 102.621 69.8906C95.9766 72.2285 93.8848 70.875 91.916 72.3516L67.3066 90.4395C66.1992 91.3008 65.8301 91.4238 65.2148 91.916C63.4922 105.82 51.3105 113.572 39.252 113.572C30.5156 113.572 22.0254 109.512 17.4727 100.775C15.873 97.6992 15.75 96.5918 15.1348 95.1152L2.95312 90.1934C1.96875 89.8242 0.738281 89.0859 0.492188 87.6094L0.246094 86.1328V59.9238C0.369141 57.3398 1.8457 55.9863 3.81445 55.9863C4.30664 55.9863 4.79883 56.1094 5.41406 56.2324C12.9199 59.3086 20.5488 62.1387 27.9316 65.3379L29.9004 64.4766C33.9609 62.7539 36.2988 62.5078 40.7285 62.5078C41.3438 61.6465 42.2051 60.416 42.6973 59.6777L53.6484 44.0508C54.5098 42.9434 57.4629 38.7598 58.4473 37.0371C59.1855 26.0859 62.6309 20.4258 69.3984 13.5352C74.6895 8.49023 84.041 4.92188 93.5156 4.92188ZM40.1133 67.9219C35.9297 67.9219 34.6992 68.4141 29.7773 70.5059C29.1621 70.752 28.5469 70.875 28.0547 70.875C26.5781 70.875 25.1016 70.0137 23.8711 69.5215C17.8418 67.0605 11.6895 64.5996 5.66016 62.1387V85.3945L17.8418 90.3164C20.918 91.793 20.1797 94.5 22.2715 98.3145C25.7168 105.082 32.4844 108.158 39.375 108.158C48.7266 108.158 58.0781 102.375 59.6777 91.916L59.9238 90.5625C60.293 88.2246 61.8926 87.6094 63.9844 86.0098L88.7168 67.9219C92.2852 65.3379 95.2383 66.6914 100.898 64.7227C110.496 61.4004 118.863 52.418 119.725 40.4824V36.5449C119.355 31.0078 116.895 24.6094 113.326 20.4258L109.758 16.8574C105.451 12.9199 98.3145 10.3359 91.3008 10.3359C87.6094 10.3359 83.7949 11.0742 80.4727 12.6738C70.0137 17.8418 64.3535 26.209 63.3691 39.252C62.6309 40.6055 58.6934 46.2656 57.9551 47.25L47.127 62.7539C45.2812 64.7227 45.2812 67.5527 42.2051 67.9219H40.1133ZM39.0059 102.744C36.2988 102.744 33.4688 101.391 31.8691 100.283C30.5156 99.2988 27.8086 97.084 27.3164 95.3613C30.2695 96.0996 34.3301 98.9297 38.8828 98.9297C41.3438 98.9297 44.0508 97.9453 46.7578 95.4844C49.0957 93.2695 50.3262 90.0703 50.3262 86.8711C49.834 78.9961 44.1738 75.6738 37.5293 73.8281C37.7754 73.459 37.6523 73.3359 38.2676 73.3359H39.6211C48.6035 73.3359 54.5098 80.3496 54.5098 87.9785C54.5098 95.3613 49.3418 102.744 39.0059 102.744ZM76.2891 37.5293C76.2891 28.5469 83.5488 21.1641 92.5312 21.1641C101.514 21.1641 108.896 28.5469 108.896 37.5293C108.896 46.5117 101.514 53.7715 92.5312 53.7715C83.5488 53.7715 76.2891 46.5117 76.2891 37.5293ZM81.7031 37.5293C81.7031 43.5586 86.502 48.3574 92.5312 48.3574C98.5605 48.3574 103.482 43.5586 103.482 37.5293C103.482 31.5 98.5605 26.5781 92.5312 26.5781C86.502 26.5781 81.7031 31.5 81.7031 37.5293Z" fill="#70BAF2"/>
</svg>
